# xmcd
#
# Track frame offsets: 
#        150
#        21582
#        42332
#        63750
#
# Disc length: 1132 seconds
#
# Revision: 11
# Processed by: cddbd v1.5.2PL0 Copyright (c) Steve Scherf et al.
# Submitted via: ExactAudioCopy v0.99pb4
#
DISCID=2f046a04
DTITLE=No Doubt - Just A Girl
DYEAR=1996
DGENRE=Crossover
TTITLE0=Just A Girl (Radio Mix)
TTITLE1=Different People (Album Version)
TTITLE2=Hey You (Live from Holland)
TTITLE3=Ob-La-Di-Ob-La-Da (Live from Holland)
EXTD=
EXTT0=
EXTT1=
EXTT2=
EXTT3=
PLAYORDER=
